<svg version="1.1" id="Layer_1" xmlns="http://www.w3.org/2000/svg" xmlns:xlink="http://www.w3.org/1999/xlink" x="0px" y="0px"
	 width="100%" viewBox="0 0 500 500" enable-background="new 0 0 500 500" xml:space="preserve">
<path fill="#000000" opacity="1.000000" stroke="none" 
	d="
M270.000000,501.000000 
	C180.000015,501.000000 90.500046,501.000000 1.000048,501.000000 
	C1.000032,334.333405 1.000032,167.666794 1.000016,1.000138 
	C167.666565,1.000092 334.333130,1.000092 500.999756,1.000046 
	C500.999847,167.666519 500.999847,334.333038 500.999939,500.999786 
	C424.166656,501.000000 347.333344,501.000000 270.000000,501.000000 
M115.937302,263.594482 
	C120.684578,277.567627 127.759071,290.405121 135.433472,302.910217 
	C145.562088,319.414307 158.046173,333.944794 172.356155,347.025848 
	C186.508530,359.962891 202.405045,370.259369 219.045395,379.553894 
	C226.565292,383.754120 234.194916,387.770691 241.580109,392.195435 
	C247.762054,395.899231 254.046310,396.091370 259.934113,392.539490 
	C277.895142,381.704285 297.289124,373.192383 313.781860,359.991791 
	C322.433258,353.067261 331.376160,346.260559 338.844452,338.162170 
	C350.002106,326.063141 360.357269,313.298431 368.899567,298.945862 
	C381.357147,278.014801 391.007141,256.214386 394.932587,232.147919 
	C397.072540,219.028534 399.438751,205.796341 399.784119,192.564911 
	C400.518677,164.425690 400.005371,136.253723 399.989197,108.095184 
	C399.986176,102.804359 397.995453,98.449562 392.902039,96.519547 
	C390.565643,95.634224 387.700958,96.213051 385.090942,95.967461 
	C374.845947,95.003433 364.588074,94.135033 354.371094,92.925980 
	C344.395905,91.745522 334.329926,90.800819 324.552155,88.632637 
	C314.790894,86.468109 305.198975,83.296356 295.783234,79.876656 
	C283.087616,75.265770 270.460754,70.375336 258.147552,64.841339 
	C252.323883,62.223969 247.442307,62.641895 242.109482,65.288155 
	C234.733856,68.948105 227.466293,72.955734 219.785980,75.837982 
	C210.718475,79.240822 201.348846,81.954155 191.948410,84.324875 
	C180.410370,87.234680 168.805374,90.218575 157.045441,91.819466 
	C143.568436,93.654091 129.877563,93.867935 116.302902,95.052864 
	C107.482368,95.822815 101.864067,98.265266 101.990303,109.944336 
	C102.353271,143.528122 102.542801,177.114288 103.068642,210.695328 
	C103.154190,216.158707 104.170364,221.710358 105.512863,227.030319 
	C108.554413,239.083160 112.067741,251.016922 115.937302,263.594482 
M224.514709,413.030731 
	C220.851181,413.028473 217.168060,412.778625 213.527542,413.066895 
	C198.020630,414.294830 182.483276,415.321716 167.046097,417.167145 
	C159.628006,418.053925 152.377975,420.488281 145.126602,422.492340 
	C143.882217,422.836212 143.014053,424.541351 141.972107,425.617676 
	C143.186157,426.749176 144.220078,428.238556 145.643158,428.954803 
	C155.827286,434.080475 167.098602,434.748718 178.083130,435.861359 
	C194.106262,437.484436 210.234329,438.669037 226.330276,438.837708 
	C251.233932,439.098694 276.149139,438.399017 301.057281,437.976898 
	C306.465668,437.885254 311.891937,437.465729 317.262085,436.806885 
	C326.285980,435.699829 335.312683,434.507965 344.255890,432.895508 
	C348.760498,432.083344 353.144135,430.426605 357.447723,428.796082 
	C358.512115,428.392822 359.701172,426.576111 359.654083,425.458832 
	C359.604462,424.280975 358.376556,422.566132 357.256683,422.129791 
	C353.868439,420.809601 350.342743,419.573914 346.762756,419.067139 
	C337.921326,417.815613 329.023315,416.955383 320.141388,416.000000 
	C310.584778,414.972076 301.033417,413.346985 291.457001,413.161804 
	C269.482147,412.736877 247.493469,413.028992 224.514709,413.030731 
z"/>
<path fill="#D8DADD" opacity="1.000000" stroke="none" 
	d="
M115.663269,263.296814 
	C112.067741,251.016922 108.554413,239.083160 105.512863,227.030319 
	C104.170364,221.710358 103.154190,216.158707 103.068642,210.695328 
	C102.542801,177.114288 102.353271,143.528122 101.990303,109.944336 
	C101.864067,98.265266 107.482368,95.822815 116.302902,95.052864 
	C129.877563,93.867935 143.568436,93.654091 157.045441,91.819466 
	C168.805374,90.218575 180.410370,87.234680 191.948410,84.324875 
	C201.348846,81.954155 210.718475,79.240822 219.785980,75.837982 
	C227.466293,72.955734 234.733856,68.948105 242.109482,65.288155 
	C247.442307,62.641895 252.323883,62.223969 258.147552,64.841339 
	C270.460754,70.375336 283.087616,75.265770 295.783234,79.876656 
	C305.198975,83.296356 314.790894,86.468109 324.552155,88.632637 
	C334.329926,90.800819 344.395905,91.745522 354.371094,92.925980 
	C364.588074,94.135033 374.845947,95.003433 385.090942,95.967461 
	C387.700958,96.213051 390.565643,95.634224 392.902039,96.519547 
	C397.995453,98.449562 399.986176,102.804359 399.989197,108.095184 
	C400.005371,136.253723 400.518677,164.425690 399.784119,192.564911 
	C399.438751,205.796341 397.072540,219.028534 394.932587,232.147919 
	C391.007141,256.214386 381.357147,278.014801 368.899567,298.945862 
	C360.357269,313.298431 350.002106,326.063141 338.844452,338.162170 
	C331.376160,346.260559 322.433258,353.067261 313.781860,359.991791 
	C297.289124,373.192383 277.895142,381.704285 259.934113,392.539490 
	C254.046310,396.091370 247.762054,395.899231 241.580109,392.195435 
	C234.194916,387.770691 226.565292,383.754120 219.045395,379.553894 
	C202.405045,370.259369 186.508530,359.962891 172.356155,347.025848 
	C158.046173,333.944794 145.562088,319.414307 135.433472,302.910217 
	C127.759071,290.405121 120.684578,277.567627 115.663269,263.296814 
M249.356049,79.965279 
	C249.191589,79.991142 249.010071,79.980415 248.865082,80.048035 
	C209.297394,98.502106 167.459183,107.791016 124.105400,110.965294 
	C119.458824,111.305511 117.191025,113.872391 117.264885,118.462357 
	C117.741455,148.076965 116.731705,177.812439 119.092957,207.277206 
	C122.693474,252.206223 141.696426,290.992767 171.922974,324.344940 
	C192.663773,347.230499 218.664536,362.599579 245.817825,376.330078 
	C247.306534,377.082855 249.259628,376.917267 251.808899,377.317535 
	C254.153900,376.559448 256.656464,376.105530 258.814972,374.987457 
	C265.907867,371.313324 272.952026,367.530853 279.879913,363.554810 
	C333.244629,332.927856 366.710541,287.516022 380.000031,227.498734 
	C388.046997,191.157410 383.855225,154.172211 384.605591,117.456528 
	C384.687714,113.438232 382.049377,111.236977 377.856720,110.913445 
	C371.721436,110.440018 365.596832,109.800369 359.480011,109.120277 
	C323.665619,105.138237 289.120300,96.447632 256.279633,81.367477 
	C254.422577,80.514740 252.162491,80.539764 249.356049,79.965279 
z"/>
<path fill="#DADADA" opacity="1.000000" stroke="none" 
	d="
M225.012558,413.030365 
	C247.493469,413.028992 269.482147,412.736877 291.457001,413.161804 
	C301.033417,413.346985 310.584778,414.972076 320.141388,416.000000 
	C329.023315,416.955383 337.921326,417.815613 346.762756,419.067139 
	C350.342743,419.573914 353.868439,420.809601 357.256683,422.129791 
	C358.376556,422.566132 359.604462,424.280975 359.654083,425.458832 
	C359.701172,426.576111 358.512115,428.392822 357.447723,428.796082 
	C353.144135,430.426605 348.760498,432.083344 344.255890,432.895508 
	C335.312683,434.507965 326.285980,435.699829 317.262085,436.806885 
	C311.891937,437.465729 306.465668,437.885254 301.057281,437.976898 
	C276.149139,438.399017 251.233932,439.098694 226.330276,438.837708 
	C210.234329,438.669037 194.106262,437.484436 178.083130,435.861359 
	C167.098602,434.748718 155.827286,434.080475 145.643158,428.954803 
	C144.220078,428.238556 143.186157,426.749176 141.972107,425.617676 
	C143.014053,424.541351 143.882217,422.836212 145.126602,422.492340 
	C152.377975,420.488281 159.628006,418.053925 167.046097,417.167145 
	C182.483276,415.321716 198.020630,414.294830 213.527542,413.066895 
	C217.168060,412.778625 220.851181,413.028473 225.012558,413.030365 
z"/>
<path fill="#22A2DA" opacity="1.000000" stroke="none" 
	d="
M250.996567,377.179169 
	C249.259628,376.917267 247.306534,377.082855 245.817825,376.330078 
	C218.664536,362.599579 192.663773,347.230499 171.922974,324.344940 
	C141.696426,290.992767 122.693474,252.206223 119.092957,207.277206 
	C116.731705,177.812439 117.741455,148.076965 117.264885,118.462357 
	C117.191025,113.872391 119.458824,111.305511 124.105400,110.965294 
	C167.459183,107.791016 209.297394,98.502106 248.865082,80.048035 
	C249.010071,79.980415 249.191589,79.991142 249.886536,80.430229 
	C250.606918,82.353745 250.959091,83.812004 250.961868,85.270927 
	C250.993439,101.793701 250.971497,118.316582 250.573990,134.914749 
	C249.094574,135.309494 248.020584,135.702255 246.913071,135.936752 
	C238.051651,137.812881 229.887024,140.864258 223.878403,148.210632 
	C212.669785,161.914673 215.155945,178.000687 215.093323,194.006363 
	C219.005951,194.006363 222.335754,193.833542 225.639511,194.052750 
	C229.271820,194.293793 230.250961,192.626389 230.143295,189.290512 
	C229.955215,183.463669 230.446915,177.596039 229.972916,171.801208 
	C228.978287,159.641663 240.021835,149.017227 251.857971,151.704132 
	C251.511246,154.214203 251.041794,156.335190 251.029297,158.458862 
	C250.946396,172.558228 250.961380,186.658142 250.483612,200.819214 
	C234.209335,200.910034 218.395294,200.877686 202.583496,201.051132 
	C200.706497,201.071732 198.841843,202.217041 196.672806,202.976807 
	C195.614075,203.430161 194.854004,203.747711 193.865601,203.832153 
	C188.081985,204.247330 188.170639,208.981155 188.139313,212.515106 
	C187.900757,239.442749 187.943451,266.374084 188.149582,293.302307 
	C188.166672,295.534393 190.032181,297.752319 191.274780,300.064819 
	C191.680695,300.432800 191.850677,300.712769 192.088409,301.197601 
	C192.303131,301.659546 192.506241,301.859650 192.933655,302.320831 
	C194.401062,303.167419 195.700287,303.695984 197.344513,304.454102 
	C211.784348,304.763428 225.879181,304.843140 240.428238,304.947815 
	C244.172928,305.029846 247.463409,305.086914 250.834045,305.350037 
	C250.914215,305.556061 251.030579,305.982666 251.024536,306.452393 
	C251.011200,330.341125 251.003876,353.760132 250.996567,377.179169 
z"/>
<path fill="#168CB6" opacity="1.000000" stroke="none" 
	d="
M250.944534,200.757889 
	C250.961380,186.658142 250.946396,172.558228 251.029297,158.458862 
	C251.041794,156.335190 251.511246,154.214203 252.212845,151.595673 
	C263.659760,151.929489 272.080292,161.035645 271.955078,171.934814 
	C271.907349,176.092377 271.786163,180.256332 271.953430,184.407104 
	C272.128937,188.762024 275.494324,191.996902 279.489380,192.003052 
	C283.542816,192.009293 286.707184,188.826462 286.989441,184.416351 
	C287.106110,182.593185 287.148407,180.765259 287.386902,178.782303 
	C287.446381,178.097626 287.343384,177.570129 287.180176,176.658401 
	C287.162994,175.499893 287.206024,174.725647 287.460632,173.612518 
	C287.768250,170.668625 288.401306,167.939514 287.834869,165.487488 
	C286.976318,161.770813 287.838104,157.083588 283.114685,154.624039 
	C281.994385,153.160263 280.825531,152.149796 279.925232,150.939514 
	C272.685516,141.207123 263.464935,135.085602 250.963882,134.839432 
	C250.971497,118.316582 250.993439,101.793701 250.961868,85.270927 
	C250.959091,83.812004 250.606918,82.353745 250.253510,80.525719 
	C252.162491,80.539764 254.422577,80.514740 256.279633,81.367477 
	C289.120300,96.447632 323.665619,105.138237 359.480011,109.120277 
	C365.596832,109.800369 371.721436,110.440018 377.856720,110.913445 
	C382.049377,111.236977 384.687714,113.438232 384.605591,117.456528 
	C383.855225,154.172211 388.046997,191.157410 380.000031,227.498734 
	C366.710541,287.516022 333.244629,332.927856 279.879913,363.554810 
	C272.952026,367.530853 265.907867,371.313324 258.814972,374.987457 
	C256.656464,376.105530 254.153900,376.559448 251.402740,377.248352 
	C251.003876,353.760132 251.011200,330.341125 251.489838,306.454529 
	C267.546417,305.989685 283.131775,306.020996 298.716705,305.955261 
	C300.466553,305.947906 302.214111,305.391571 304.166443,304.988647 
	C304.633850,304.727051 304.853699,304.520050 305.343353,304.110168 
	C307.860016,301.656952 310.063080,299.360046 312.388489,297.015198 
	C312.510834,296.967255 312.772308,296.942535 313.088409,296.669678 
	C313.600189,294.774139 313.964111,293.151672 313.966400,291.528717 
	C314.003784,265.119354 314.001831,238.709976 313.992676,212.300598 
	C313.990509,206.018829 311.597137,203.274216 304.771057,201.701233 
	C301.964355,201.627731 299.460175,201.803955 296.725647,201.953415 
	C296.495300,201.926651 296.035645,201.987991 295.767944,201.974335 
	C295.321777,201.969620 295.143311,201.978531 294.731445,201.932404 
	C294.498077,201.877365 294.032928,201.760559 293.682526,201.538147 
	C279.230774,201.211700 265.129456,201.107666 251.005310,200.942856 
	C250.982498,200.882065 250.944534,200.757889 250.944534,200.757889 
z"/>
<path fill="#000000" opacity="1.000000" stroke="none" 
	d="
M294.032928,201.760559 
	C294.032928,201.760559 294.498077,201.877365 294.803558,202.167694 
	C295.417908,202.301346 295.726776,202.144669 296.035645,201.987991 
	C296.035645,201.987991 296.495300,201.926651 296.891235,202.267609 
	C299.863342,202.682907 302.439484,202.757233 305.326477,202.986084 
	C307.729248,205.412552 309.821198,207.684494 311.952209,210.428040 
	C311.991089,217.542160 311.970123,224.184769 311.994720,230.827194 
	C312.076385,252.905884 312.174438,274.984497 312.266174,297.063141 
	C310.063080,299.360046 307.860016,301.656952 304.879700,303.999878 
	C282.728516,304.079773 261.354584,304.113647 239.518036,304.077759 
	C225.036804,304.080170 211.018173,304.152344 196.999527,304.224518 
	C195.700287,303.695984 194.401062,303.167419 192.982040,302.067688 
	C192.581726,301.328613 192.301193,301.160675 192.020660,300.992737 
	C191.850677,300.712769 191.680695,300.432800 191.241394,299.640930 
	C190.650986,297.388214 190.092865,295.653046 190.050888,293.905487 
	C189.891342,287.263977 189.898636,280.618469 189.914917,273.510864 
	C189.938446,258.042450 189.890625,243.037582 189.907257,227.566559 
	C189.982040,223.281189 190.163467,219.452774 189.958176,215.645218 
	C189.715347,211.141266 190.725937,207.216187 194.093933,204.065262 
	C194.854004,203.747711 195.614075,203.430161 197.134964,203.056717 
	C212.268677,202.997467 226.641953,203.049759 241.014160,202.949142 
	C244.340729,202.925858 247.663635,202.380249 251.167068,202.366837 
	C265.574921,202.359314 279.803925,202.059937 294.032928,201.760559 
M246.803055,275.983978 
	C256.761322,278.545288 262.033630,273.205902 261.168091,264.601044 
	C260.922760,262.162262 261.940979,258.975250 263.524078,257.094757 
	C267.621033,252.228027 269.739716,241.922607 266.877106,237.338242 
	C262.306824,230.019180 253.596268,226.525436 245.201050,229.025299 
	C234.118439,233.455139 229.205414,247.096100 236.981262,254.945908 
	C240.999847,259.002747 240.931595,262.690613 240.979156,267.094727 
	C241.021698,271.036499 242.361908,274.060760 246.803055,275.983978 
z"/>
<path fill="#000000" opacity="1.000000" stroke="none" 
	d="
M287.249054,173.951385 
	C287.206024,174.725647 287.162994,175.499893 287.102325,176.970978 
	C287.131287,178.091690 287.177887,178.515594 287.224487,178.939499 
	C287.148407,180.765259 287.106110,182.593185 286.989441,184.416351 
	C286.707184,188.826462 283.542816,192.009293 279.489380,192.003052 
	C275.494324,191.996902 272.128937,188.762024 271.953430,184.407104 
	C271.786163,180.256332 271.907349,176.092377 271.955078,171.934814 
	C272.080292,161.035645 263.659760,151.929489 252.301483,151.207825 
	C240.021835,149.017227 228.978287,159.641663 229.972916,171.801208 
	C230.446915,177.596039 229.955215,183.463669 230.143295,189.290512 
	C230.250961,192.626389 229.271820,194.293793 225.639511,194.052750 
	C222.335754,193.833542 219.005951,194.006363 215.093323,194.006363 
	C215.155945,178.000687 212.669785,161.914673 223.878403,148.210632 
	C229.887024,140.864258 238.051651,137.812881 246.913071,135.936752 
	C248.020584,135.702255 249.094574,135.309494 250.573990,134.914749 
	C263.464935,135.085602 272.685516,141.207123 279.925232,150.939514 
	C280.825531,152.149796 281.994385,153.160263 283.059448,155.002380 
	C284.469757,161.811401 285.859406,167.881393 287.249054,173.951385 
z"/>
<path fill="#2692C5" opacity="1.000000" stroke="none" 
	d="
M189.843567,273.974457 
	C189.898636,280.618469 189.891342,287.263977 190.050888,293.905487 
	C190.092865,295.653046 190.650986,297.388214 191.005478,299.552948 
	C190.032181,297.752319 188.166672,295.534393 188.149582,293.302307 
	C187.943451,266.374084 187.900757,239.442749 188.139313,212.515106 
	C188.170639,208.981155 188.081985,204.247330 193.865601,203.832153 
	C190.725937,207.216187 189.715347,211.141266 189.958176,215.645218 
	C190.163467,219.452774 189.982040,223.281189 189.625458,227.871796 
	C189.200195,243.176193 189.111938,257.709137 189.076538,272.242218 
	C189.075134,272.819000 189.576477,273.397003 189.843567,273.974457 
z"/>
<path fill="#3A85A5" opacity="1.000000" stroke="none" 
	d="
M250.988235,202.074997 
	C247.663635,202.380249 244.340729,202.925858 241.014160,202.949142 
	C226.641953,203.049759 212.268677,202.997467 197.433624,202.920929 
	C198.841843,202.217041 200.706497,201.071732 202.583496,201.051132 
	C218.395294,200.877686 234.209335,200.910034 250.483612,200.819214 
	C250.944534,200.757889 250.982498,200.882065 250.987747,201.210419 
	C250.991409,201.717514 250.989822,201.896255 250.988235,202.074997 
z"/>
<path fill="#69A5B7" opacity="1.000000" stroke="none" 
	d="
M239.980621,304.147552 
	C261.354584,304.113647 282.728516,304.079773 304.566101,304.156189 
	C304.853699,304.520050 304.633850,304.727051 303.702942,304.955200 
	C285.608429,305.063232 268.181152,305.103607 250.753891,305.143982 
	C247.463409,305.086914 244.172928,305.029846 240.434799,304.754333 
	C239.987152,304.535889 239.980621,304.147552 239.980621,304.147552 
z"/>
<path fill="#1981A5" opacity="1.000000" stroke="none" 
	d="
M250.834045,305.350037 
	C268.181152,305.103607 285.608429,305.063232 303.499207,305.056335 
	C302.214111,305.391571 300.466553,305.947906 298.716705,305.955261 
	C283.131775,306.020996 267.546417,305.989685 251.495880,305.984802 
	C251.030579,305.982666 250.914215,305.556061 250.834045,305.350037 
z"/>
<path fill="#6CB5C7" opacity="1.000000" stroke="none" 
	d="
M239.518036,304.077759 
	C239.980621,304.147552 239.987152,304.535889 239.980591,304.729370 
	C225.879181,304.843140 211.784348,304.763428 197.344513,304.454102 
	C211.018173,304.152344 225.036804,304.080170 239.518036,304.077759 
z"/>
<path fill="#2692C5" opacity="1.000000" stroke="none" 
	d="
M192.088409,301.197601 
	C192.301193,301.160675 192.581726,301.328613 192.813873,301.749634 
	C192.506241,301.859650 192.303131,301.659546 192.088409,301.197601 
z"/>
<path fill="#217EA4" opacity="1.000000" stroke="none" 
	d="
M311.913147,209.956421 
	C309.821198,207.684494 307.729248,205.412552 305.333740,202.765472 
	C305.030212,202.390320 305.073517,201.950943 305.073517,201.950943 
	C311.597137,203.274216 313.990509,206.018829 313.992676,212.300598 
	C314.001831,238.709976 314.003784,265.119354 313.966400,291.528717 
	C313.964111,293.151672 313.600189,294.774139 313.149780,296.208191 
	C312.926117,268.539673 312.970856,241.059753 312.942505,213.579895 
	C312.941223,212.371719 312.271515,211.164230 311.913147,209.956421 
z"/>
<path fill="#85B6CF" opacity="1.000000" stroke="none" 
	d="
M311.952179,210.428040 
	C312.271515,211.164230 312.941223,212.371719 312.942505,213.579895 
	C312.970856,241.059753 312.926117,268.539673 312.833679,296.481079 
	C312.772308,296.942535 312.510834,296.967255 312.388519,297.015198 
	C312.174438,274.984497 312.076385,252.905884 311.994720,230.827194 
	C311.970123,224.184769 311.991089,217.542160 311.952179,210.428040 
z"/>
<path fill="#2D728C" opacity="1.000000" stroke="none" 
	d="
M251.167068,202.366837 
	C250.989822,201.896255 250.991409,201.717514 251.010559,201.271210 
	C265.129456,201.107666 279.230774,201.211700 293.682526,201.538147 
	C279.803925,202.059937 265.574921,202.359314 251.167068,202.366837 
z"/>
<path fill="#2D829F" opacity="1.000000" stroke="none" 
	d="
M287.460632,173.612518 
	C285.859406,167.881393 284.469757,161.811401 283.135345,155.363068 
	C287.838104,157.083588 286.976318,161.770813 287.834869,165.487488 
	C288.401306,167.939514 287.768250,170.668625 287.460632,173.612518 
z"/>
<path fill="#2D728C" opacity="1.000000" stroke="none" 
	d="
M304.771057,201.701233 
	C305.073517,201.950943 305.030212,202.390320 305.022949,202.610931 
	C302.439484,202.757233 299.863342,202.682907 297.121582,202.294373 
	C299.460175,201.803955 301.964355,201.627731 304.771057,201.701233 
z"/>
<path fill="#2D829F" opacity="1.000000" stroke="none" 
	d="
M287.386902,178.782303 
	C287.177887,178.515594 287.131287,178.091690 287.162537,177.355225 
	C287.343384,177.570129 287.446381,178.097626 287.386902,178.782303 
z"/>
<path fill="#2D728C" opacity="1.000000" stroke="none" 
	d="
M295.767944,201.974335 
	C295.726776,202.144669 295.417908,202.301346 295.036926,202.222733 
	C295.143311,201.978531 295.321777,201.969620 295.767944,201.974335 
z"/>
<path fill="#1B8BB3" opacity="1.000000" stroke="none" 
	d="
M245.954041,228.946136 
	C253.596268,226.525436 262.306824,230.019180 266.877106,237.338242 
	C269.739716,241.922607 267.621033,252.228027 263.524078,257.094757 
	C261.940979,258.975250 260.922760,262.162262 261.168091,264.601044 
	C262.033630,273.205902 256.761322,278.545288 246.493698,275.608398 
	C247.645615,274.896301 249.106873,274.559753 250.963745,274.132080 
	C250.963745,260.198425 250.984421,246.259827 250.949097,232.321350 
	C250.940369,228.876236 248.269394,229.113159 245.954041,228.946136 
z"/>
<path fill="#25A1D6" opacity="1.000000" stroke="none" 
	d="
M245.577545,228.985718 
	C248.269394,229.113159 250.940369,228.876236 250.949097,232.321350 
	C250.984421,246.259827 250.963745,260.198425 250.963745,274.132080 
	C249.106873,274.559753 247.645615,274.896301 246.095154,275.541870 
	C242.361908,274.060760 241.021698,271.036499 240.979156,267.094727 
	C240.931595,262.690613 240.999847,259.002747 236.981262,254.945908 
	C229.205414,247.096100 234.118439,233.455139 245.577545,228.985718 
z"/>
<path fill="#96CACA" opacity="1.000000" stroke="none" 
	d="
M189.914932,273.510864 
	C189.576477,273.397003 189.075134,272.819000 189.076538,272.242218 
	C189.111938,257.709137 189.200195,243.176193 189.560974,228.337982 
	C189.890625,243.037582 189.938446,258.042450 189.914932,273.510864 
z"/>
</svg>